<svg width="141" height="243" viewBox="0 0 141 243" fill="none" xmlns="http://www.w3.org/2000/svg">
<g clip-path="url(#clip0_4_5)">
<g filter="url(#filter0_d_4_5)">
<path d="M19.7251 242.45C19.7251 242.755 19.9711 243 20.2775 243H140.448C140.754 243 141 242.755 141 242.45C141 242.144 140.754 241.899 140.448 241.899H20.2775C19.9711 241.899 19.7251 242.144 19.7251 242.45Z" fill="#484565"/>
</g>
<g filter="url(#filter1_d_4_5)">
<path d="M82.9206 0.151911C82.9206 0.151911 72.7486 -2.3039 66.5925 12.5327C61.4624 24.8997 57.8225 31.504 61.987 35.9902C63.4773 37.595 65.6036 38.4598 67.7949 38.5338L91.2402 39.3016C91.2402 39.3016 99.8477 16.8154 94.6154 8.68483C89.3832 0.549651 82.9206 0.151911 82.9206 0.151911Z" fill="#2F2E41"/>
</g>
<g filter="url(#filter2_d_4_5)">
<path d="M87.7768 37.4331L76.4998 41.1284V24.9552H86.7322L87.7768 37.4331Z" fill="#F6A6A9"/>
</g>
<g filter="url(#filter3_d_4_5)">
<path d="M79.1229 233.413H68.5563L62.4327 177.183H78.7608L79.1229 233.413Z" fill="#F6A6A9"/>
</g>
<g filter="url(#filter4_d_4_5)">
<path d="M58.2682 242.45C57.1586 242.45 56.1698 242.422 55.4223 242.353C52.6135 242.098 49.9393 240.035 48.593 238.828C47.9894 238.287 47.7944 237.422 48.1101 236.678C48.3376 236.141 48.788 235.744 49.3451 235.586L56.7594 233.477L68.7652 225.407L68.8999 225.647C68.9509 225.735 70.1302 227.853 70.5248 229.283C70.6733 229.828 70.6362 230.282 70.4087 230.628C70.2509 230.874 70.0327 231.012 69.8516 231.091C70.0698 231.318 70.7523 231.775 72.8461 232.108C75.9102 232.594 76.5509 229.431 76.5788 229.296L76.5973 229.19L76.6902 229.13C78.148 228.196 79.044 227.77 79.3551 227.858C79.5501 227.914 79.8704 228.011 80.7386 236.622C80.8268 236.891 81.435 238.875 81.0218 240.766C80.5714 242.829 71.5322 242.117 69.7216 241.955C69.6705 241.959 62.9016 242.44 58.2636 242.44V242.45H58.2682Z" fill="#2F2E41"/>
</g>
<g filter="url(#filter5_d_4_5)">
<path d="M102.986 233.413H92.4241L86.2958 177.183H102.624L102.986 233.413Z" fill="#F6A6A9"/>
</g>
<g filter="url(#filter6_d_4_5)">
<path d="M82.136 242.45C81.0264 242.45 80.0376 242.422 79.2901 242.353C76.4813 242.098 73.8071 240.035 72.4608 238.828C71.8572 238.287 71.6622 237.422 71.9779 236.678C72.2054 236.141 72.6558 235.744 73.2129 235.586L80.6272 233.477L92.633 225.407L92.7677 225.647C92.8187 225.735 93.998 227.853 94.3926 229.283C94.5412 229.828 94.504 230.282 94.2765 230.628C94.1187 230.874 93.9005 231.012 93.7194 231.091C93.9376 231.318 94.6201 231.775 96.7139 232.108C99.778 232.594 100.419 229.431 100.447 229.296L100.465 229.19L100.558 229.13C102.016 228.196 102.912 227.77 103.223 227.858C103.418 227.914 103.738 228.011 104.606 236.622C104.695 236.891 105.303 238.875 104.89 240.766C104.439 242.829 95.4 242.117 93.5894 241.955C93.5383 241.959 86.7694 242.44 82.1314 242.44V242.45H82.136Z" fill="#2F2E41"/>
</g>
<g filter="url(#filter7_d_4_5)">
<path d="M106.027 95.3043H54.698L73.1479 34.8154H93.6126L106.027 95.3043Z" fill="#DDDEDF"/>
</g>
<g filter="url(#filter8_d_4_5)">
<path d="M53.3006 129.246C52.6878 132.951 50.2086 135.61 47.7619 135.18C45.3153 134.75 43.825 131.402 44.4378 127.697C44.6607 126.212 45.2503 124.811 46.1556 123.604L48.9505 107.939L56.5597 109.526L52.9942 124.797C53.4631 126.24 53.5699 127.766 53.3052 129.246L53.3006 129.246Z" fill="#F6A6A9"/>
</g>
<g filter="url(#filter9_d_4_5)">
<path d="M76.3792 34.8247C76.3792 34.8247 63.6305 34.4917 62.2887 37.8309C60.947 41.1747 45.1806 120.713 45.1806 120.713H55.5801L76.3792 34.8247Z" fill="#DDDEDF"/>
</g>
<g filter="url(#filter10_d_4_5)">
<path d="M79.0858 28.7753C85.2934 28.7753 90.3257 23.7623 90.3257 17.5785C90.3257 11.3946 85.2934 6.38163 79.0858 6.38163C72.8783 6.38163 67.846 11.3946 67.846 17.5785C67.846 23.7623 72.8783 28.7753 79.0858 28.7753Z" fill="#F6A6A9"/>
</g>
<g filter="url(#filter11_d_4_5)">
<path d="M80.85 3.84719C80.85 3.84719 66.4207 25.228 68.8488 38.5662L60.4549 33.3262C60.4549 33.3262 66.365 6.32613 75.1721 4.23106L80.85 3.84257L80.85 3.84719Z" fill="#2F2E41"/>
</g>
<g filter="url(#filter12_d_4_5)">
<path d="M95.3582 95.3043H61.6759L43.2446 170.658C42.9057 173.839 44.9299 176.809 48.0358 177.637C58.1475 180.333 82.4099 184.158 119.138 173.511C122.671 172.489 124.676 168.775 123.567 165.279L95.3582 95.3089V95.3043Z" fill="#2F2E41"/>
</g>
<g filter="url(#filter13_d_4_5)">
<path d="M49.9301 45.5452L49.6979 45.3139L49.4658 45.5452C38.1703 34.3021 19.8643 34.3159 8.57809 45.5683C-2.70815 56.8253 -2.93564 75.2878 8.35989 86.5309L49.7258 127.697L91.0638 86.48C102.35 75.2231 102.113 56.7605 90.8224 45.5174C79.5269 34.2743 61.2209 34.2882 49.9347 45.5405C49.9347 45.5405 49.9301 45.5452 49.9301 45.5452Z" fill="#FF767E"/>
</g>
<g filter="url(#filter14_d_4_5)">
<path d="M80.4786 40.4763L89.8103 35.708C94.0769 34.1356 98.8356 34.6628 102.652 37.1371C114.258 44.6572 137.137 61.2374 127.304 69.4327C114.347 80.2364 96.83 61.0755 96.83 61.0755L80.4786 40.4763Z" fill="#DDDEDF"/>
</g>
<g filter="url(#filter15_d_4_5)">
<path d="M80.2743 48.6253C77.0291 46.7199 75.4367 43.4547 76.7227 41.3319C78.0087 39.2137 81.681 39.0426 84.9309 40.948C86.2401 41.6926 87.3404 42.7471 88.1389 44.0236L101.788 52.2836L97.5542 58.777L84.5455 49.9434C83.0227 49.8556 81.5557 49.4023 80.2697 48.6207H80.2743L80.2743 48.6253Z" fill="#F6A6A9"/>
</g>
<path d="M89.5503 56.113L93.4315 46.8771L112.397 53.13L103.915 67.1942L89.5503 56.113Z" fill="#DDDEDF"/>
</g>
<defs>
<filter id="filter0_d_4_5" x="15.7251" y="241.899" width="129.275" height="9.10072" filterUnits="userSpaceOnUse" color-interpolation-filters="sRGB">
<feFlood flood-opacity="0" result="BackgroundImageFix"/>
<feColorMatrix in="SourceAlpha" type="matrix" values="0 0 0 0 0 0 0 0 0 0 0 0 0 0 0 0 0 0 127 0" result="hardAlpha"/>
<feOffset dy="4"/>
<feGaussianBlur stdDeviation="2"/>
<feComposite in2="hardAlpha" operator="out"/>
<feColorMatrix type="matrix" values="0 0 0 0 0 0 0 0 0 0 0 0 0 0 0 0 0 0 0.25 0"/>
<feBlend mode="normal" in2="BackgroundImageFix" result="effect1_dropShadow_4_5"/>
<feBlend mode="normal" in="SourceGraphic" in2="effect1_dropShadow_4_5" result="shape"/>
</filter>
<filter id="filter1_d_4_5" x="56.1753" y="0" width="44.1273" height="47.3016" filterUnits="userSpaceOnUse" color-interpolation-filters="sRGB">
<feFlood flood-opacity="0" result="BackgroundImageFix"/>
<feColorMatrix in="SourceAlpha" type="matrix" values="0 0 0 0 0 0 0 0 0 0 0 0 0 0 0 0 0 0 127 0" result="hardAlpha"/>
<feOffset dy="4"/>
<feGaussianBlur stdDeviation="2"/>
<feComposite in2="hardAlpha" operator="out"/>
<feColorMatrix type="matrix" values="0 0 0 0 0 0 0 0 0 0 0 0 0 0 0 0 0 0 0.25 0"/>
<feBlend mode="normal" in2="BackgroundImageFix" result="effect1_dropShadow_4_5"/>
<feBlend mode="normal" in="SourceGraphic" in2="effect1_dropShadow_4_5" result="shape"/>
</filter>
<filter id="filter2_d_4_5" x="72.4998" y="24.9552" width="19.2769" height="24.1732" filterUnits="userSpaceOnUse" color-interpolation-filters="sRGB">
<feFlood flood-opacity="0" result="BackgroundImageFix"/>
<feColorMatrix in="SourceAlpha" type="matrix" values="0 0 0 0 0 0 0 0 0 0 0 0 0 0 0 0 0 0 127 0" result="hardAlpha"/>
<feOffset dy="4"/>
<feGaussianBlur stdDeviation="2"/>
<feComposite in2="hardAlpha" operator="out"/>
<feColorMatrix type="matrix" values="0 0 0 0 0 0 0 0 0 0 0 0 0 0 0 0 0 0 0.25 0"/>
<feBlend mode="normal" in2="BackgroundImageFix" result="effect1_dropShadow_4_5"/>
<feBlend mode="normal" in="SourceGraphic" in2="effect1_dropShadow_4_5" result="shape"/>
</filter>
<filter id="filter3_d_4_5" x="58.4327" y="177.183" width="24.6902" height="64.2294" filterUnits="userSpaceOnUse" color-interpolation-filters="sRGB">
<feFlood flood-opacity="0" result="BackgroundImageFix"/>
<feColorMatrix in="SourceAlpha" type="matrix" values="0 0 0 0 0 0 0 0 0 0 0 0 0 0 0 0 0 0 127 0" result="hardAlpha"/>
<feOffset dy="4"/>
<feGaussianBlur stdDeviation="2"/>
<feComposite in2="hardAlpha" operator="out"/>
<feColorMatrix type="matrix" values="0 0 0 0 0 0 0 0 0 0 0 0 0 0 0 0 0 0 0.25 0"/>
<feBlend mode="normal" in2="BackgroundImageFix" result="effect1_dropShadow_4_5"/>
<feBlend mode="normal" in="SourceGraphic" in2="effect1_dropShadow_4_5" result="shape"/>
</filter>
<filter id="filter4_d_4_5" x="43.9606" y="225.407" width="41.2036" height="25.0427" filterUnits="userSpaceOnUse" color-interpolation-filters="sRGB">
<feFlood flood-opacity="0" result="BackgroundImageFix"/>
<feColorMatrix in="SourceAlpha" type="matrix" values="0 0 0 0 0 0 0 0 0 0 0 0 0 0 0 0 0 0 127 0" result="hardAlpha"/>
<feOffset dy="4"/>
<feGaussianBlur stdDeviation="2"/>
<feComposite in2="hardAlpha" operator="out"/>
<feColorMatrix type="matrix" values="0 0 0 0 0 0 0 0 0 0 0 0 0 0 0 0 0 0 0.25 0"/>
<feBlend mode="normal" in2="BackgroundImageFix" result="effect1_dropShadow_4_5"/>
<feBlend mode="normal" in="SourceGraphic" in2="effect1_dropShadow_4_5" result="shape"/>
</filter>
<filter id="filter5_d_4_5" x="82.2958" y="177.183" width="24.6903" height="64.2294" filterUnits="userSpaceOnUse" color-interpolation-filters="sRGB">
<feFlood flood-opacity="0" result="BackgroundImageFix"/>
<feColorMatrix in="SourceAlpha" type="matrix" values="0 0 0 0 0 0 0 0 0 0 0 0 0 0 0 0 0 0 127 0" result="hardAlpha"/>
<feOffset dy="4"/>
<feGaussianBlur stdDeviation="2"/>
<feComposite in2="hardAlpha" operator="out"/>
<feColorMatrix type="matrix" values="0 0 0 0 0 0 0 0 0 0 0 0 0 0 0 0 0 0 0.25 0"/>
<feBlend mode="normal" in2="BackgroundImageFix" result="effect1_dropShadow_4_5"/>
<feBlend mode="normal" in="SourceGraphic" in2="effect1_dropShadow_4_5" result="shape"/>
</filter>
<filter id="filter6_d_4_5" x="67.8284" y="225.407" width="41.2036" height="25.0427" filterUnits="userSpaceOnUse" color-interpolation-filters="sRGB">
<feFlood flood-opacity="0" result="BackgroundImageFix"/>
<feColorMatrix in="SourceAlpha" type="matrix" values="0 0 0 0 0 0 0 0 0 0 0 0 0 0 0 0 0 0 127 0" result="hardAlpha"/>
<feOffset dy="4"/>
<feGaussianBlur stdDeviation="2"/>
<feComposite in2="hardAlpha" operator="out"/>
<feColorMatrix type="matrix" values="0 0 0 0 0 0 0 0 0 0 0 0 0 0 0 0 0 0 0.25 0"/>
<feBlend mode="normal" in2="BackgroundImageFix" result="effect1_dropShadow_4_5"/>
<feBlend mode="normal" in="SourceGraphic" in2="effect1_dropShadow_4_5" result="shape"/>
</filter>
<filter id="filter7_d_4_5" x="50.698" y="34.8154" width="59.329" height="68.4889" filterUnits="userSpaceOnUse" color-interpolation-filters="sRGB">
<feFlood flood-opacity="0" result="BackgroundImageFix"/>
<feColorMatrix in="SourceAlpha" type="matrix" values="0 0 0 0 0 0 0 0 0 0 0 0 0 0 0 0 0 0 127 0" result="hardAlpha"/>
<feOffset dy="4"/>
<feGaussianBlur stdDeviation="2"/>
<feComposite in2="hardAlpha" operator="out"/>
<feColorMatrix type="matrix" values="0 0 0 0 0 0 0 0 0 0 0 0 0 0 0 0 0 0 0.25 0"/>
<feBlend mode="normal" in2="BackgroundImageFix" result="effect1_dropShadow_4_5"/>
<feBlend mode="normal" in="SourceGraphic" in2="effect1_dropShadow_4_5" result="shape"/>
</filter>
<filter id="filter8_d_4_5" x="40.3001" y="107.939" width="20.2596" height="35.2862" filterUnits="userSpaceOnUse" color-interpolation-filters="sRGB">
<feFlood flood-opacity="0" result="BackgroundImageFix"/>
<feColorMatrix in="SourceAlpha" type="matrix" values="0 0 0 0 0 0 0 0 0 0 0 0 0 0 0 0 0 0 127 0" result="hardAlpha"/>
<feOffset dy="4"/>
<feGaussianBlur stdDeviation="2"/>
<feComposite in2="hardAlpha" operator="out"/>
<feColorMatrix type="matrix" values="0 0 0 0 0 0 0 0 0 0 0 0 0 0 0 0 0 0 0.25 0"/>
<feBlend mode="normal" in2="BackgroundImageFix" result="effect1_dropShadow_4_5"/>
<feBlend mode="normal" in="SourceGraphic" in2="effect1_dropShadow_4_5" result="shape"/>
</filter>
<filter id="filter9_d_4_5" x="41.1806" y="34.8155" width="39.1985" height="93.898" filterUnits="userSpaceOnUse" color-interpolation-filters="sRGB">
<feFlood flood-opacity="0" result="BackgroundImageFix"/>
<feColorMatrix in="SourceAlpha" type="matrix" values="0 0 0 0 0 0 0 0 0 0 0 0 0 0 0 0 0 0 127 0" result="hardAlpha"/>
<feOffset dy="4"/>
<feGaussianBlur stdDeviation="2"/>
<feComposite in2="hardAlpha" operator="out"/>
<feColorMatrix type="matrix" values="0 0 0 0 0 0 0 0 0 0 0 0 0 0 0 0 0 0 0.25 0"/>
<feBlend mode="normal" in2="BackgroundImageFix" result="effect1_dropShadow_4_5"/>
<feBlend mode="normal" in="SourceGraphic" in2="effect1_dropShadow_4_5" result="shape"/>
</filter>
<filter id="filter10_d_4_5" x="63.846" y="6.38163" width="30.4796" height="30.3937" filterUnits="userSpaceOnUse" color-interpolation-filters="sRGB">
<feFlood flood-opacity="0" result="BackgroundImageFix"/>
<feColorMatrix in="SourceAlpha" type="matrix" values="0 0 0 0 0 0 0 0 0 0 0 0 0 0 0 0 0 0 127 0" result="hardAlpha"/>
<feOffset dy="4"/>
<feGaussianBlur stdDeviation="2"/>
<feComposite in2="hardAlpha" operator="out"/>
<feColorMatrix type="matrix" values="0 0 0 0 0 0 0 0 0 0 0 0 0 0 0 0 0 0 0.25 0"/>
<feBlend mode="normal" in2="BackgroundImageFix" result="effect1_dropShadow_4_5"/>
<feBlend mode="normal" in="SourceGraphic" in2="effect1_dropShadow_4_5" result="shape"/>
</filter>
<filter id="filter11_d_4_5" x="56.4549" y="3.84257" width="28.3951" height="42.7236" filterUnits="userSpaceOnUse" color-interpolation-filters="sRGB">
<feFlood flood-opacity="0" result="BackgroundImageFix"/>
<feColorMatrix in="SourceAlpha" type="matrix" values="0 0 0 0 0 0 0 0 0 0 0 0 0 0 0 0 0 0 127 0" result="hardAlpha"/>
<feOffset dy="4"/>
<feGaussianBlur stdDeviation="2"/>
<feComposite in2="hardAlpha" operator="out"/>
<feColorMatrix type="matrix" values="0 0 0 0 0 0 0 0 0 0 0 0 0 0 0 0 0 0 0.25 0"/>
<feBlend mode="normal" in2="BackgroundImageFix" result="effect1_dropShadow_4_5"/>
<feBlend mode="normal" in="SourceGraphic" in2="effect1_dropShadow_4_5" result="shape"/>
</filter>
<filter id="filter12_d_4_5" x="39.2077" y="95.3043" width="88.6653" height="93.2737" filterUnits="userSpaceOnUse" color-interpolation-filters="sRGB">
<feFlood flood-opacity="0" result="BackgroundImageFix"/>
<feColorMatrix in="SourceAlpha" type="matrix" values="0 0 0 0 0 0 0 0 0 0 0 0 0 0 0 0 0 0 127 0" result="hardAlpha"/>
<feOffset dy="4"/>
<feGaussianBlur stdDeviation="2"/>
<feComposite in2="hardAlpha" operator="out"/>
<feColorMatrix type="matrix" values="0 0 0 0 0 0 0 0 0 0 0 0 0 0 0 0 0 0 0.25 0"/>
<feBlend mode="normal" in2="BackgroundImageFix" result="effect1_dropShadow_4_5"/>
<feBlend mode="normal" in="SourceGraphic" in2="effect1_dropShadow_4_5" result="shape"/>
</filter>
<filter id="filter13_d_4_5" x="-4" y="37.0932" width="107.41" height="98.6038" filterUnits="userSpaceOnUse" color-interpolation-filters="sRGB">
<feFlood flood-opacity="0" result="BackgroundImageFix"/>
<feColorMatrix in="SourceAlpha" type="matrix" values="0 0 0 0 0 0 0 0 0 0 0 0 0 0 0 0 0 0 127 0" result="hardAlpha"/>
<feOffset dy="4"/>
<feGaussianBlur stdDeviation="2"/>
<feComposite in2="hardAlpha" operator="out"/>
<feColorMatrix type="matrix" values="0 0 0 0 0 0 0 0 0 0 0 0 0 0 0 0 0 0 0.25 0"/>
<feBlend mode="normal" in2="BackgroundImageFix" result="effect1_dropShadow_4_5"/>
<feBlend mode="normal" in="SourceGraphic" in2="effect1_dropShadow_4_5" result="shape"/>
</filter>
<filter id="filter14_d_4_5" x="76.4786" y="34.8166" width="57.2205" height="45.9188" filterUnits="userSpaceOnUse" color-interpolation-filters="sRGB">
<feFlood flood-opacity="0" result="BackgroundImageFix"/>
<feColorMatrix in="SourceAlpha" type="matrix" values="0 0 0 0 0 0 0 0 0 0 0 0 0 0 0 0 0 0 127 0" result="hardAlpha"/>
<feOffset dy="4"/>
<feGaussianBlur stdDeviation="2"/>
<feComposite in2="hardAlpha" operator="out"/>
<feColorMatrix type="matrix" values="0 0 0 0 0 0 0 0 0 0 0 0 0 0 0 0 0 0 0.25 0"/>
<feBlend mode="normal" in2="BackgroundImageFix" result="effect1_dropShadow_4_5"/>
<feBlend mode="normal" in="SourceGraphic" in2="effect1_dropShadow_4_5" result="shape"/>
</filter>
<filter id="filter15_d_4_5" x="72.277" y="39.6239" width="33.5112" height="27.153" filterUnits="userSpaceOnUse" color-interpolation-filters="sRGB">
<feFlood flood-opacity="0" result="BackgroundImageFix"/>
<feColorMatrix in="SourceAlpha" type="matrix" values="0 0 0 0 0 0 0 0 0 0 0 0 0 0 0 0 0 0 127 0" result="hardAlpha"/>
<feOffset dy="4"/>
<feGaussianBlur stdDeviation="2"/>
<feComposite in2="hardAlpha" operator="out"/>
<feColorMatrix type="matrix" values="0 0 0 0 0 0 0 0 0 0 0 0 0 0 0 0 0 0 0.25 0"/>
<feBlend mode="normal" in2="BackgroundImageFix" result="effect1_dropShadow_4_5"/>
<feBlend mode="normal" in="SourceGraphic" in2="effect1_dropShadow_4_5" result="shape"/>
</filter>
<clipPath id="clip0_4_5">
<rect width="141" height="243" fill="white"/>
</clipPath>
</defs>
</svg>
