<svg width="266" height="186" viewBox="0 0 266 186" fill="none" xmlns="http://www.w3.org/2000/svg">
<circle cx="72.4999" cy="113.5" r="72.5" fill="url(#paint0_linear_5_51)" fill-opacity="0.75"/>
<g filter="url(#filter0_d_5_51)">
<path d="M127.413 92.4433C126.373 92.3426 125.288 92.201 125 92.1286L124.478 91.9969L126.581 88.4172C127.738 86.4483 128.822 84.6048 128.99 84.3204C129.158 84.036 129.439 83.8028 129.614 83.802C130.164 83.7993 134.168 82.7138 135.095 82.316C136.409 81.7519 136.76 81.3295 136.636 80.4624C136.465 79.2669 135.633 76.3119 134.863 74.1644C133.712 70.9563 133.473 69.4766 133.593 66.2812C133.649 64.7791 133.914 62.0744 134.182 60.2709C135.422 51.9156 135.073 47.5286 132.833 43.3C132.366 42.4182 131.695 41.3592 131.343 40.9468L130.702 40.197L130.38 40.6681C129.802 41.5143 127.219 43.9509 125.704 45.08C120.08 49.2692 111.001 53.4156 103.695 55.1309C101.876 55.558 101.043 55.6496 98.9043 55.6579C97.1865 55.6645 96.2417 55.5946 96.0964 55.4501C95.9759 55.3304 95.6679 54.614 95.4118 53.8581C93.9144 49.4374 91.9157 46.7273 89.5993 45.9765C87.2188 45.205 84.0846 46.7974 81.0784 50.3058C79.3983 52.2666 78.9965 52.9243 78.4844 54.5513C77.4574 57.8146 78.3913 63.1028 80.4966 65.945L81.124 66.7921L80.2333 70.2772C79.7434 72.194 79.0272 74.7373 78.6417 75.9289C77.7802 78.5916 76.4236 82.1461 76.2688 82.1462C76.2059 82.1463 76.0467 81.7862 75.9149 81.346C75.1525 78.7987 72.8561 73.7616 71.073 70.7256C68.732 66.7395 66.2442 63.5309 62.5577 59.7431C59.843 56.9537 59.2378 56.1625 58.1408 53.9687C55.1149 47.9173 55.1149 39.309 58.1407 35.027C58.3416 34.7427 59.3718 33.9201 60.4302 33.1988C65.9491 29.4378 69.2029 25.9428 71.8469 20.936C72.3668 19.9514 73.4531 17.5774 74.261 15.6603C76.7751 9.6944 78.7023 7.5266 83.7004 5.04282C90.2483 1.78881 100.764 0.0120954 113.546 6.06332e-05C132.335 -0.0176066 154.33 3.82755 164.973 8.99077C169.322 11.1006 171.762 13.396 173.485 16.9974C174.499 19.1173 174.936 20.6712 175.657 24.7181C176.676 30.4352 177.346 32.1655 179.283 34.0764C181.095 35.864 182.837 36.5408 188.397 37.618C194.266 38.7549 198.313 41.2074 200.232 44.7893C201.483 47.1237 201.998 49.4918 202.232 53.9862L202.365 56.5289L201.506 55.3994C198.204 51.0552 193.517 48.0784 188.138 46.9089C185.634 46.3645 179.901 46.4176 176.987 47.0122C174.212 47.5787 170.304 48.8717 167.794 50.0537C164.522 51.5948 159.924 55.0174 156.864 58.189C152.982 62.2135 151.32 65.0898 148.279 73.0506C145.223 81.0525 142.859 85.2345 138.396 90.5342C137.426 91.6866 137.088 91.9544 136.295 92.2002C135.115 92.566 130.097 92.7033 127.413 92.4433Z" fill="#DC05FF"/>
</g>
<g filter="url(#filter1_d_5_51)">
<path d="M68.0088 96.5437C74.8666 88.809 78.9304 78.4058 81.5214 66.5961C79.3876 64.5443 76.3353 56.9127 80.293 51.8106C86.4609 44.0295 91.9535 43.261 95.6011 55.6718C101.569 58.467 124.569 49.254 130.753 40.7921C138.781 50.5689 131.389 62.787 133.493 70.9281C133.735 72.8114 136.024 77.5772 136.328 81.0048C135.929 82.0581 131.518 83.1131 129.052 83.5475C124.358 90.8859 118.642 103.262 113.933 103.136C110.303 102.977 106.851 101.853 104.905 100.129C98.2608 110.667 99.2273 121.44 102.499 129.599C94.9532 139.841 72.609 143.417 66.7804 132.518C78.511 121.994 77.6405 107.46 84.4508 101.252C87.7193 98.4779 83.1867 91.5202 78.2141 96.8262L69.8987 104.454C69.0324 105.099 68.0826 97.7883 68.0088 96.5437Z" fill="white"/>
<path d="M68.0088 96.5437C74.8666 88.809 78.9304 78.4058 81.5214 66.5961C79.3876 64.5443 76.3353 56.9127 80.293 51.8106C86.4609 44.0295 91.9535 43.261 95.6011 55.6718C101.569 58.467 124.569 49.254 130.753 40.7921C138.781 50.5689 131.389 62.787 133.493 70.9281C133.735 72.8114 136.024 77.5772 136.328 81.0048C135.929 82.0581 131.518 83.1131 129.052 83.5475C124.358 90.8859 118.642 103.262 113.933 103.136C110.303 102.977 106.851 101.853 104.905 100.129C98.2608 110.667 99.2273 121.44 102.499 129.599C94.9532 139.841 72.609 143.417 66.7804 132.518C78.511 121.994 77.6405 107.46 84.4508 101.252C87.7193 98.4779 83.1867 91.5202 78.2141 96.8262L69.8987 104.454C69.0324 105.099 68.0826 97.7883 68.0088 96.5437Z" stroke="white" stroke-width="0.999999"/>
</g>
<g filter="url(#filter2_d_5_51)">
<path d="M25.3338 152.498C22.6634 167.591 36.6498 171.108 44.5894 168.332C52.942 159.532 58.2411 147.527 59.3976 135.425C66.591 129.984 73.6819 124.431 75.8178 113.437C77.8475 107.989 80.5139 103.808 83.1571 99.5802C83.9012 98.008 81.6886 96.2941 79.8148 97.7182C74.1151 102.025 74.9982 104.184 68.5975 108.115C65.7346 102.465 67.6453 100.866 65.8954 96.4925C64.3737 86.9204 63.403 78.1483 60.4824 68.7656C59.6739 65.9983 55.2443 64.9014 55.9393 69.435C58.0359 79.4538 59.7899 89.488 58.834 97.5344C56.0979 93.5081 56.1167 78.3773 53.799 66.6397C53.1887 64.6144 48.9151 63.9825 48.6542 66.7769C48.6578 77.4525 50.2339 83.3111 50.0802 96.5423C50.114 97.4523 48.9682 98.5531 48.4109 98.0752C47.1052 88.8154 47.1234 79.8371 45.2496 70.8416C44.7645 69.0501 41.0893 68.706 40.9068 71.2444C40.8799 79.8792 40.7734 88.514 40.1248 97.1492C38.0244 91.4523 34.9082 86.4651 31.5603 81.6398C30.2571 80.4585 28.442 80.7313 28.8219 83.1069C29.7801 89.063 32.9324 94.3852 35.4521 102.946C36.435 114.653 33.372 125.892 37.0774 131.246C34.827 139.213 30.2179 145.929 25.3338 152.498Z" fill="white"/>
<path d="M25.3338 152.498C22.6634 167.591 36.6498 171.108 44.5894 168.332C52.942 159.532 58.2411 147.527 59.3976 135.425C66.591 129.984 73.6819 124.431 75.8178 113.437C77.8475 107.989 80.5139 103.808 83.1571 99.5802C83.9012 98.008 81.6886 96.2941 79.8148 97.7182C74.1151 102.025 74.9982 104.184 68.5975 108.115C65.7346 102.465 67.6453 100.866 65.8954 96.4925C64.3737 86.9204 63.403 78.1483 60.4824 68.7656C59.6739 65.9983 55.2443 64.9014 55.9393 69.435C58.0359 79.4538 59.7899 89.488 58.834 97.5344C56.0979 93.5081 56.1167 78.3773 53.799 66.6397C53.1887 64.6144 48.9151 63.9825 48.6542 66.7769C48.6578 77.4525 50.2339 83.3111 50.0802 96.5423C50.114 97.4523 48.9682 98.5531 48.4109 98.0752C47.1052 88.8154 47.1234 79.8371 45.2496 70.8416C44.7645 69.0501 41.0893 68.706 40.9068 71.2444C40.8799 79.8792 40.7734 88.514 40.1248 97.1492C38.0244 91.4523 34.9082 86.4651 31.5603 81.6398C30.2571 80.4585 28.442 80.7313 28.8219 83.1069C29.7801 89.063 32.9324 94.3852 35.4521 102.946C36.435 114.653 33.372 125.892 37.0774 131.246C34.827 139.213 30.2179 145.929 25.3338 152.498Z" stroke="white" stroke-width="0.999999"/>
</g>
<path d="M141.721 89.3008C141.719 89.2677 142.284 88.3551 142.977 87.2727C144.645 84.669 147.391 80.0962 150.21 75.2284C157.301 62.9823 159.808 59.3282 163.721 55.5355C167.943 51.443 172.212 49.5501 177.787 49.2981C181.248 49.1417 185.985 49.9609 190.305 51.4627C191.667 51.9364 191.617 51.9437 189.832 51.5325C181.716 49.6629 174.722 50.8017 168.777 54.9609C164.183 58.1746 160.428 62.5811 154.649 71.5391C148.539 81.0095 146.902 83.3793 144.31 86.4988C143.316 87.6955 141.729 89.413 141.721 89.3008Z" fill="#DC05FF"/>
<path d="M147.007 87.1977C147.007 87.1559 151.029 80.761 153.233 77.2979C158.079 69.6853 161.27 65.2856 164.447 61.8356C169.28 56.5876 174.344 53.877 180.807 53.0776C182.578 52.8585 182.836 52.8971 181.66 53.2048C175.294 54.8699 169.812 58.4021 165.073 63.8934C162.733 66.6046 161.053 68.9609 157.298 74.7992C153.367 80.9114 151.733 83.1034 149.497 85.2631C148.384 86.3375 147.007 87.4077 147.007 87.1977Z" fill="#DC05FF"/>
<path d="M52.4013 44.4254C50.8859 40.3063 50.4225 36.8526 51.1813 35.3332C51.3845 34.9264 51.4277 34.8965 52.1011 34.6975C54.8289 33.8915 57.644 32.2469 60.5526 29.7603C62.4385 28.1479 65.1439 25.3708 67.0611 23.0793C67.4191 22.6515 67.7307 22.3202 67.7537 22.3431C67.8143 22.4034 64.8847 26.4841 63.8259 27.8144C61.5529 30.6702 59.2127 32.5337 54.6508 35.1205C53.7936 35.6065 52.9541 36.1319 52.7852 36.2879C51.721 37.271 51.6566 40.6444 52.6293 44.4565C52.7629 44.9803 52.8543 45.4268 52.8323 45.4487C52.8104 45.4706 52.6164 45.0101 52.4013 44.4254Z" fill="#DC05FF"/>
<path d="M54.6407 56.0161C51.0181 52.4033 48.8514 49.6856 47.1099 46.5701C46.167 44.8833 45.3819 42.2031 45.0546 39.5535C44.845 37.8565 44.9124 34.9471 45.1931 33.5786C45.5764 31.7092 46.1648 30.2975 47.0409 29.1456C47.6553 28.3379 47.804 28.2265 49.5328 27.2804C55.9133 23.7885 62.1361 19.3889 65.962 15.6647C67.5171 14.1509 68.1795 13.3628 69.1509 11.8707C70.9468 9.11196 71.6987 7.32924 72.5379 3.84028C72.931 2.20604 72.8931 2.86131 72.4753 4.92335C71.952 7.50546 70.9261 10.1565 69.7956 11.8472C66.5877 16.6453 58.466 23.2155 49.8733 27.9639C48.3558 28.8025 48.3509 28.8066 47.663 29.8044C46.7197 31.1727 45.9954 32.986 45.7252 34.6559C45.5375 35.8158 45.5403 37.9809 45.7311 39.2551C46.2733 42.8749 47.9339 46.6214 50.808 50.7092C52.304 52.837 54.4564 55.4683 56.201 57.3024C56.6196 57.7424 56.9363 58.1282 56.9048 58.1597C56.8732 58.1912 55.8544 57.2266 54.6407 56.0161Z" fill="#DC05FF"/>
<path d="M139.305 136.188C137.961 136.062 136.391 136 134.594 136H132.742L142.937 107.43C143.391 106.148 143.617 105.406 143.617 105.203C143.617 104.984 143.609 104.852 143.594 104.805L143.617 104.758C144.633 104.805 145.711 104.828 146.852 104.828C147.789 104.828 148.914 104.812 150.227 104.781L150.25 104.828C150.219 104.891 150.203 104.977 150.203 105.086C150.203 105.383 150.437 106.172 150.906 107.453L161.312 136.07C161 136.055 160.633 136.047 160.211 136.047C160.211 136.047 159.805 136.031 158.992 136C158.602 136 158.25 136 157.937 136H154.305L152.102 129.25H141.508L139.305 136.188ZM150.273 123.625L146.734 112.727L143.289 123.625H150.273ZM169.961 133.375C169.961 134.719 169.992 135.594 170.055 136H164.102V101.078H169.961V133.375ZM175.398 123.953C175.398 122.125 175.711 120.43 176.336 118.867C176.961 117.305 177.844 115.938 178.984 114.766C181.422 112.281 184.609 111.039 188.547 111.039C191.875 111.039 194.547 112.141 196.562 114.344C198.547 116.469 199.539 119.141 199.539 122.359C199.539 123.594 199.445 124.438 199.258 124.891C197.695 125.328 194.516 125.547 189.719 125.547H181.469C181.875 127.219 182.82 128.523 184.305 129.461C185.789 130.383 187.719 130.844 190.094 130.844C192.578 130.844 194.711 130.398 196.492 129.508C196.961 129.273 197.312 129.055 197.547 128.852C197.516 129.508 197.477 130.18 197.43 130.867L197.172 134.523C195.984 135.336 194.062 135.898 191.406 136.211C190.625 136.305 189.875 136.352 189.156 136.352C185.187 136.352 181.906 135.195 179.312 132.883C176.703 130.555 175.398 127.578 175.398 123.953ZM193.305 121C192.664 117.641 190.836 115.961 187.82 115.961C185.445 115.961 183.641 116.984 182.406 119.031C182.031 119.656 181.742 120.344 181.539 121.094C181.914 121.109 182.375 121.125 182.922 121.141H184.656C185.234 121.156 185.789 121.164 186.32 121.164H187.656C188.453 121.164 189.234 121.156 190 121.141L191.922 121.07C192.437 121.055 192.898 121.031 193.305 121ZM210.18 133.375C210.18 134.719 210.211 135.594 210.273 136H204.437V111.508H210.18V113.312C211.508 111.797 212.898 111.039 214.352 111.039C215.82 111.039 216.977 111.219 217.82 111.578L217.398 117.883L217.305 117.953C216.758 116.984 215.625 116.5 213.906 116.5C213.25 116.5 212.578 116.727 211.891 117.18C211.219 117.617 210.648 118.203 210.18 118.938V133.375ZM231.555 130.844C233.57 130.844 234.953 130.32 235.703 129.273H235.891L235.961 134.711C235.195 135.477 233.773 135.984 231.695 136.234C231.133 136.312 230.43 136.352 229.586 136.352C228.758 136.352 227.852 136.195 226.867 135.883C225.898 135.57 225.07 135.062 224.383 134.359C222.961 132.906 222.25 130.633 222.25 127.539V116.898H218.711C218.695 116.445 218.687 115.984 218.687 115.516V111.906C218.687 111.641 218.695 111.508 218.711 111.508H222.25V104.828H227.992V111.508H234.437V116.898H227.992V126.461C227.992 128.914 228.672 130.312 230.031 130.656C230.469 130.781 230.977 130.844 231.555 130.844ZM256.914 134.547C254.695 135.75 252.687 136.352 250.891 136.352C249.094 136.352 247.555 136.188 246.273 135.859C244.992 135.516 243.906 135.016 243.016 134.359C241.203 133.031 240.297 131.109 240.297 128.594C240.297 126.344 241.406 124.469 243.625 122.969C246.031 121.344 249.297 120.531 253.422 120.531L254.359 120.555C254.547 120.57 254.758 120.586 254.992 120.602C255.227 120.602 255.437 120.617 255.625 120.648C255.5 118.148 254.422 116.688 252.391 116.266C251.719 116.125 251 116.055 250.234 116.055C249.484 116.055 248.742 116.125 248.008 116.266C247.289 116.391 246.586 116.562 245.898 116.781C244.383 117.266 243.297 117.82 242.641 118.445L242.57 118.398L241.867 113.219C244.633 111.766 247.656 111.039 250.937 111.039C256.031 111.039 259.289 112.875 260.711 116.547C261.164 117.719 261.391 119.039 261.391 120.508V128.992C261.391 130.805 262.031 132.039 263.312 132.695L259.07 136.586C258.18 136.117 257.461 135.438 256.914 134.547ZM255.648 124.867C255.227 124.789 254.789 124.75 254.336 124.75H253.398C249.945 124.75 247.75 125.516 246.812 127.047C246.531 127.5 246.391 127.977 246.391 128.477C246.391 128.977 246.477 129.422 246.648 129.812C246.836 130.188 247.141 130.5 247.562 130.75C248.375 131.219 249.578 131.453 251.172 131.453C252.781 131.453 254.281 131.07 255.672 130.305C255.656 130.133 255.648 129.953 255.648 129.766V124.867Z" fill="#2F2E41"/>
<path d="M147.109 165.883C146.641 165.914 146.141 165.93 145.609 165.93C145.078 165.93 144.289 165.891 143.242 165.812V178H137.031V146.664C139.219 146.383 141.906 146.242 145.094 146.242C149.437 146.242 152.672 147.047 154.797 148.656C156.937 150.25 158.008 152.719 158.008 156.062C158.008 158.656 157.031 160.875 155.078 162.719C154.437 163.312 153.703 163.828 152.875 164.266L157.656 174.344C158.594 176.422 159.312 177.656 159.812 178.047L159.695 178.164C158.18 177.914 155.797 177.922 152.547 178.188L147.109 165.883ZM145.539 151.773C144.742 151.773 143.977 151.812 143.242 151.891V160.844C144.008 160.953 144.906 161.008 145.937 161.008C146.969 161.008 147.836 160.922 148.539 160.75C149.242 160.562 149.852 160.281 150.367 159.906C151.477 159.078 152.031 157.836 152.031 156.18C152.031 154.523 151.453 153.359 150.297 152.688C149.219 152.078 147.633 151.773 145.539 151.773ZM162.648 165.883C162.648 164.164 162.937 162.523 163.516 160.961C164.109 159.383 164.953 158.008 166.047 156.836C168.437 154.305 171.539 153.039 175.352 153.039C179.148 153.039 182.164 154.234 184.398 156.625C186.539 158.906 187.609 161.867 187.609 165.508C187.609 169.148 186.508 172.164 184.305 174.555C181.977 177.086 178.891 178.352 175.047 178.352C171.078 178.352 167.969 177.109 165.719 174.625C163.672 172.359 162.648 169.445 162.648 165.883ZM168.344 165.742C168.344 166.727 168.508 167.68 168.836 168.602C169.164 169.523 169.633 170.312 170.242 170.969C171.539 172.391 173.242 173.102 175.352 173.102C177.305 173.102 178.844 172.406 179.969 171.016C181.062 169.672 181.609 167.922 181.609 165.766C181.609 163.578 181.047 161.812 179.922 160.469C178.719 159.031 177.07 158.312 174.977 158.312C172.852 158.312 171.187 159.078 169.984 160.609C168.891 162.016 168.344 163.727 168.344 165.742ZM200.758 178.352C196.352 178.352 193.031 177.547 190.797 175.938C190.828 175.469 190.875 174.938 190.937 174.344L191.148 172.656C191.273 171.547 191.352 170.859 191.383 170.594C191.414 170.312 191.437 170.164 191.453 170.148C191.469 170.117 191.594 170.242 191.828 170.523C192.062 170.789 192.508 171.117 193.164 171.508C193.82 171.898 194.578 172.242 195.437 172.539C197.297 173.18 199.234 173.5 201.25 173.5C203.953 173.5 205.305 172.602 205.305 170.805C205.305 170.227 205.047 169.797 204.531 169.516C203.609 169.047 202.25 168.695 200.453 168.461C198.672 168.211 197.211 167.852 196.07 167.383C194.93 166.914 194 166.352 193.281 165.695C191.953 164.461 191.289 162.844 191.289 160.844C191.289 158.406 192.227 156.492 194.102 155.102C195.961 153.727 198.531 153.039 201.812 153.039C205.062 153.039 207.836 153.961 210.133 155.805C210.023 156.211 209.906 156.602 209.781 156.977C209.422 158.008 209.156 158.75 208.984 159.203L208.445 160.586C208.414 160.711 208.391 160.773 208.375 160.773C208.344 160.773 208.219 160.609 208 160.281C207.016 159.141 205.484 158.391 203.406 158.031C202.766 157.906 202.109 157.844 201.437 157.844C198.594 157.844 197.172 158.703 197.172 160.422C197.172 161.016 197.469 161.469 198.062 161.781C199.172 162.375 200.687 162.812 202.609 163.094C204.547 163.375 206.016 163.758 207.016 164.242C208.016 164.711 208.82 165.281 209.43 165.953C210.555 167.172 211.117 168.789 211.117 170.805C211.117 173.008 210.234 174.797 208.469 176.172C206.625 177.625 204.055 178.352 200.758 178.352ZM232.727 176.547C230.508 177.75 228.5 178.352 226.703 178.352C224.906 178.352 223.367 178.188 222.086 177.859C220.805 177.516 219.719 177.016 218.828 176.359C217.016 175.031 216.109 173.109 216.109 170.594C216.109 168.344 217.219 166.469 219.437 164.969C221.844 163.344 225.109 162.531 229.234 162.531L230.172 162.555C230.359 162.57 230.57 162.586 230.805 162.602C231.039 162.602 231.25 162.617 231.437 162.648C231.312 160.148 230.234 158.688 228.203 158.266C227.531 158.125 226.812 158.055 226.047 158.055C225.297 158.055 224.555 158.125 223.82 158.266C223.102 158.391 222.398 158.562 221.711 158.781C220.195 159.266 219.109 159.82 218.453 160.445L218.383 160.398L217.68 155.219C220.445 153.766 223.469 153.039 226.75 153.039C231.844 153.039 235.102 154.875 236.523 158.547C236.977 159.719 237.203 161.039 237.203 162.508V170.992C237.203 172.805 237.844 174.039 239.125 174.695L234.883 178.586C233.992 178.117 233.273 177.438 232.727 176.547ZM231.461 166.867C231.039 166.789 230.602 166.75 230.148 166.75H229.211C225.758 166.75 223.562 167.516 222.625 169.047C222.344 169.5 222.203 169.977 222.203 170.477C222.203 170.977 222.289 171.422 222.461 171.812C222.648 172.188 222.953 172.5 223.375 172.75C224.187 173.219 225.391 173.453 226.984 173.453C228.594 173.453 230.094 173.07 231.484 172.305C231.469 172.133 231.461 171.953 231.461 171.766V166.867Z" fill="#DC05FF"/>
<defs>
<filter id="filter0_d_5_51" x="51.8714" y="0" width="154.493" height="100.578" filterUnits="userSpaceOnUse" color-interpolation-filters="sRGB">
<feFlood flood-opacity="0" result="BackgroundImageFix"/>
<feColorMatrix in="SourceAlpha" type="matrix" values="0 0 0 0 0 0 0 0 0 0 0 0 0 0 0 0 0 0 127 0" result="hardAlpha"/>
<feOffset dy="4"/>
<feGaussianBlur stdDeviation="2"/>
<feComposite in2="hardAlpha" operator="out"/>
<feColorMatrix type="matrix" values="0 0 0 0 0 0 0 0 0 0 0 0 0 0 0 0 0 0 0.25 0"/>
<feBlend mode="normal" in2="BackgroundImageFix" result="effect1_dropShadow_5_51"/>
<feBlend mode="normal" in="SourceGraphic" in2="effect1_dropShadow_5_51" result="shape"/>
</filter>
<filter id="filter1_d_5_51" x="62.1544" y="39.9763" width="78.6817" height="107.693" filterUnits="userSpaceOnUse" color-interpolation-filters="sRGB">
<feFlood flood-opacity="0" result="BackgroundImageFix"/>
<feColorMatrix in="SourceAlpha" type="matrix" values="0 0 0 0 0 0 0 0 0 0 0 0 0 0 0 0 0 0 127 0" result="hardAlpha"/>
<feOffset dy="4"/>
<feGaussianBlur stdDeviation="2"/>
<feComposite in2="hardAlpha" operator="out"/>
<feColorMatrix type="matrix" values="0 0 0 0 0 0 0 0 0 0 0 0 0 0 0 0 0 0 0.25 0"/>
<feBlend mode="normal" in2="BackgroundImageFix" result="effect1_dropShadow_5_51"/>
<feBlend mode="normal" in="SourceGraphic" in2="effect1_dropShadow_5_51" result="shape"/>
</filter>
<filter id="filter2_d_5_51" x="20.5" y="64.3962" width="67.3069" height="113.304" filterUnits="userSpaceOnUse" color-interpolation-filters="sRGB">
<feFlood flood-opacity="0" result="BackgroundImageFix"/>
<feColorMatrix in="SourceAlpha" type="matrix" values="0 0 0 0 0 0 0 0 0 0 0 0 0 0 0 0 0 0 127 0" result="hardAlpha"/>
<feOffset dy="4"/>
<feGaussianBlur stdDeviation="2"/>
<feComposite in2="hardAlpha" operator="out"/>
<feColorMatrix type="matrix" values="0 0 0 0 0 0 0 0 0 0 0 0 0 0 0 0 0 0 0.25 0"/>
<feBlend mode="normal" in2="BackgroundImageFix" result="effect1_dropShadow_5_51"/>
<feBlend mode="normal" in="SourceGraphic" in2="effect1_dropShadow_5_51" result="shape"/>
</filter>
<linearGradient id="paint0_linear_5_51" x1="34.4999" y1="177.5" x2="125.5" y2="60.5" gradientUnits="userSpaceOnUse">
<stop offset="0.260417" stop-color="#DC05FF"/>
<stop offset="1" stop-color="#DC05FF" stop-opacity="0"/>
</linearGradient>
</defs>
</svg>
