<svg width="52" height="48" viewBox="0 0 52 48" fill="none" xmlns="http://www.w3.org/2000/svg">
<circle cx="16.9245" cy="27.4957" r="16.9245" fill="url(#paint0_linear_73_25)" fill-opacity="0.75"/>
<g filter="url(#filter0_d_73_25)">
<path d="M29.7435 21.3777C29.5008 21.3551 29.2474 21.3233 29.1803 21.307L29.0583 21.2774L29.5493 20.4736C29.8194 20.0315 30.0724 19.6175 30.1117 19.5537C30.151 19.4898 30.2165 19.4374 30.2573 19.4372C30.3856 19.4367 31.3204 19.1929 31.5367 19.1036C31.8435 18.9769 31.9255 18.882 31.8966 18.6873C31.8567 18.4189 31.6624 17.7553 31.4826 17.2731C31.2139 16.5527 31.1582 16.2204 31.1862 15.5029C31.1994 15.1656 31.2612 14.5583 31.3237 14.1533C31.6131 12.2771 31.5317 11.292 31.0088 10.3424C30.8997 10.1444 30.7432 9.9066 30.6609 9.81399L30.5113 9.64562L30.4361 9.75141C30.3012 9.94142 29.6983 10.4886 29.3445 10.7421C28.0318 11.6828 25.9123 12.6139 24.2068 12.9991C23.7821 13.095 23.5877 13.1155 23.0884 13.1174C22.6874 13.1189 22.4668 13.1032 22.4329 13.0708C22.4048 13.0439 22.3329 12.883 22.2731 12.7133C21.9235 11.7206 21.457 11.112 20.9162 10.9434C20.3605 10.7702 19.6289 11.1278 18.9271 11.9156C18.5349 12.3559 18.4411 12.5036 18.3215 12.8689C18.0818 13.6017 18.2998 14.7892 18.7913 15.4274L18.9377 15.6176L18.7298 16.4002C18.6155 16.8307 18.4483 17.4017 18.3583 17.6693C18.1571 18.2672 17.8405 19.0654 17.8043 19.0655C17.7897 19.0655 17.7525 18.9846 17.7217 18.8858C17.5437 18.3137 17.0077 17.1826 16.5914 16.5009C16.0449 15.6058 15.4642 14.8853 14.6036 14.0347C13.9699 13.4084 13.8286 13.2307 13.5725 12.7381C12.8661 11.3792 12.8661 9.44623 13.5725 8.48468C13.6194 8.42085 13.8599 8.23611 14.1069 8.07416C15.3953 7.22961 16.1549 6.4448 16.7721 5.3205C16.8934 5.09942 17.147 4.56632 17.3356 4.13584C17.9225 2.79617 18.3724 2.30938 19.5392 1.75164C21.0677 1.02095 23.5225 0.621979 26.5063 0.619276C30.8926 0.615309 36.0271 1.47875 38.5115 2.63817C39.5268 3.11194 40.0964 3.62737 40.4986 4.43609C40.7353 4.91211 40.8374 5.26103 41.0057 6.16979C41.2435 7.45358 41.4 7.84212 41.8521 8.27121C42.2751 8.67263 42.6817 8.8246 43.9798 9.0665C45.3497 9.32179 46.2946 9.8725 46.7426 10.6768C47.0345 11.201 47.1548 11.7328 47.2094 12.742L47.2404 13.313L47.0399 13.0594C46.269 12.0839 45.1749 11.4154 43.9192 11.1528C43.3346 11.0306 41.9964 11.0425 41.3162 11.176C40.6683 11.3032 39.7559 11.5936 39.1701 11.859C38.4064 12.205 37.333 12.9736 36.6187 13.6858C35.7123 14.5895 35.3244 15.2354 34.6146 17.023C33.901 18.8198 33.3492 19.7589 32.3074 20.949C32.0809 21.2078 32.0021 21.2679 31.817 21.3231C31.5415 21.4052 30.3701 21.4361 29.7435 21.3777Z" fill="#D852D2"/>
</g>
<g filter="url(#filter1_d_73_25)">
<path d="M15.8761 22.2985C17.477 20.5616 18.4257 18.2256 19.0305 15.5736C18.5324 15.1129 17.8199 13.3992 18.7438 12.2535C20.1836 10.5063 21.4658 10.3337 22.3173 13.1206C23.7106 13.7482 29.0795 11.6794 30.5232 9.7793C32.3973 11.9747 30.6717 14.7183 31.1629 16.5464C31.2193 16.9693 31.7537 18.0395 31.8247 18.8092C31.7315 19.0457 30.7019 19.2826 30.1261 19.3801C29.0303 21.028 27.6961 23.8071 26.5967 23.7788C25.7493 23.7432 24.9435 23.4907 24.4893 23.1036C22.9382 25.4699 23.1638 27.8891 23.9276 29.7211C22.1661 32.0211 16.95 32.8241 15.5894 30.3767C18.3278 28.0134 18.1246 24.7497 19.7144 23.3558C20.4774 22.7328 19.4193 21.1704 18.2585 22.3619L16.3173 24.0748C16.1151 24.2197 15.8933 22.578 15.8761 22.2985Z" fill="white"/>
<path d="M15.8761 22.2985C17.477 20.5616 18.4257 18.2256 19.0305 15.5736C18.5324 15.1129 17.8199 13.3992 18.7438 12.2535C20.1836 10.5063 21.4658 10.3337 22.3173 13.1206C23.7106 13.7482 29.0795 11.6794 30.5232 9.7793C32.3973 11.9747 30.6717 14.7183 31.1629 16.5464C31.2193 16.9693 31.7537 18.0395 31.8247 18.8092C31.7315 19.0457 30.7019 19.2826 30.1261 19.3801C29.0303 21.028 27.6961 23.8071 26.5967 23.7788C25.7493 23.7432 24.9435 23.4907 24.4893 23.1036C22.9382 25.4699 23.1638 27.8891 23.9276 29.7211C22.1661 32.0211 16.95 32.8241 15.5894 30.3767C18.3278 28.0134 18.1246 24.7497 19.7144 23.3558C20.4774 22.7328 19.4193 21.1704 18.2585 22.3619L16.3173 24.0748C16.1151 24.2197 15.8933 22.578 15.8761 22.2985Z" stroke="white" stroke-width="0.999999"/>
</g>
<g filter="url(#filter2_d_73_25)">
<path d="M5.914 34.8632C5.29061 38.2524 8.55563 39.0421 10.409 38.4188C12.3589 36.4426 13.5959 33.7469 13.8659 31.0293C15.5451 29.8076 17.2005 28.5606 17.6991 26.0919C18.1729 24.8685 18.7953 23.9296 19.4124 22.9803C19.5861 22.6272 19.0696 22.2424 18.6321 22.5622C17.3016 23.5294 17.5077 24.0141 16.0135 24.8968C15.3452 23.6281 15.7913 23.2691 15.3828 22.2869C15.0275 20.1375 14.8009 18.1677 14.1191 16.0608C13.9304 15.4394 12.8963 15.1931 13.0586 16.2111C13.548 18.4609 13.9575 20.7141 13.7343 22.5209C13.0956 21.6168 13.1 18.2191 12.559 15.5834C12.4165 15.1286 11.4189 14.9867 11.3579 15.6142C11.3588 18.0114 11.7267 19.327 11.6908 22.2981C11.6987 22.5025 11.4312 22.7497 11.3012 22.6423C10.9963 20.563 11.0006 18.5469 10.5632 16.5269C10.4499 16.1247 9.59198 16.0474 9.54938 16.6174C9.5431 18.5564 9.51823 20.4953 9.36684 22.4344C8.8765 21.1551 8.14906 20.0353 7.36753 18.9517C7.0633 18.6865 6.63957 18.7477 6.72827 19.2812C6.95194 20.6186 7.68782 21.8137 8.27602 23.7361C8.50548 26.365 7.79046 28.8886 8.65544 30.091C8.13011 31.88 7.05414 33.388 5.914 34.8632Z" fill="white"/>
<path d="M5.914 34.8632C5.29061 38.2524 8.55563 39.0421 10.409 38.4188C12.3589 36.4426 13.5959 33.7469 13.8659 31.0293C15.5451 29.8076 17.2005 28.5606 17.6991 26.0919C18.1729 24.8685 18.7953 23.9296 19.4124 22.9803C19.5861 22.6272 19.0696 22.2424 18.6321 22.5622C17.3016 23.5294 17.5077 24.0141 16.0135 24.8968C15.3452 23.6281 15.7913 23.2691 15.3828 22.2869C15.0275 20.1375 14.8009 18.1677 14.1191 16.0608C13.9304 15.4394 12.8963 15.1931 13.0586 16.2111C13.548 18.4609 13.9575 20.7141 13.7343 22.5209C13.0956 21.6168 13.1 18.2191 12.559 15.5834C12.4165 15.1286 11.4189 14.9867 11.3579 15.6142C11.3588 18.0114 11.7267 19.327 11.6908 22.2981C11.6987 22.5025 11.4312 22.7497 11.3012 22.6423C10.9963 20.563 11.0006 18.5469 10.5632 16.5269C10.4499 16.1247 9.59198 16.0474 9.54938 16.6174C9.5431 18.5564 9.51823 20.4953 9.36684 22.4344C8.8765 21.1551 8.14906 20.0353 7.36753 18.9517C7.0633 18.6865 6.63957 18.7477 6.72827 19.2812C6.95194 20.6186 7.68782 21.8137 8.27602 23.7361C8.50548 26.365 7.79046 28.8886 8.65544 30.091C8.13011 31.88 7.05414 33.388 5.914 34.8632Z" stroke="white" stroke-width="0.999999"/>
</g>
<path d="M33.0836 20.672C33.0831 20.6646 33.215 20.4597 33.3768 20.2166C33.7662 19.632 34.4072 18.6051 35.0652 17.512C36.7206 14.7621 37.3059 13.9416 38.2193 13.0899C39.2049 12.1709 40.2013 11.7459 41.5028 11.6893C42.3108 11.6542 43.4167 11.8381 44.4251 12.1754C44.7431 12.2817 44.7315 12.2834 44.3148 12.1911C42.42 11.7712 40.7874 12.0269 39.3995 12.9609C38.3271 13.6825 37.4505 14.6721 36.1014 16.6836C34.6753 18.8102 34.293 19.3423 33.688 20.0428C33.4559 20.3116 33.0854 20.6972 33.0836 20.672Z" fill="#D852D2"/>
<path d="M34.3175 20.1998C34.3175 20.1904 35.2564 18.7544 35.771 17.9768C36.9022 16.2673 37.6471 15.2793 38.3888 14.5047C39.5171 13.3262 40.699 12.7175 42.2078 12.538C42.6212 12.4888 42.6816 12.4975 42.407 12.5666C40.9208 12.9405 39.6412 13.7336 38.5349 14.9667C37.9887 15.5755 37.5965 16.1046 36.7199 17.4157C35.8022 18.7882 35.4207 19.2804 34.8988 19.7653C34.6391 20.0066 34.3175 20.2469 34.3175 20.1998Z" fill="#D852D2"/>
<path d="M12.2326 10.5951C11.8789 9.67016 11.7707 8.89462 11.9478 8.55343C11.9953 8.46208 12.0054 8.45538 12.1626 8.4107C12.7993 8.2297 13.4565 7.8604 14.1355 7.30202C14.5757 6.93996 15.2073 6.31636 15.6549 5.8018C15.7384 5.70574 15.8112 5.63134 15.8165 5.63648C15.8307 5.65001 15.1468 6.56635 14.8996 6.86508C14.369 7.50635 13.8227 7.9248 12.7578 8.50568C12.5577 8.61482 12.3617 8.73279 12.3223 8.76783C12.0738 8.98859 12.0588 9.74609 12.2859 10.6021C12.3171 10.7197 12.3384 10.82 12.3333 10.8249C12.3281 10.8298 12.2829 10.7264 12.2326 10.5951Z" fill="#D852D2"/>
<path d="M12.7554 13.1979C11.9098 12.3866 11.404 11.7763 10.9974 11.0767C10.7773 10.698 10.594 10.0961 10.5176 9.50114C10.4687 9.12008 10.4844 8.46677 10.55 8.15947C10.6394 7.73968 10.7768 7.42269 10.9813 7.16403C11.1247 6.98264 11.1595 6.95764 11.563 6.74519C13.0525 5.96107 14.5052 4.97312 15.3983 4.13685C15.7613 3.79691 15.9159 3.61995 16.1427 3.28488C16.5619 2.66541 16.7375 2.2651 16.9334 1.48164C17.0251 1.11466 17.0163 1.26181 16.9188 1.72484C16.7966 2.30467 16.5571 2.89996 16.2932 3.27962C15.5444 4.35704 13.6484 5.83241 11.6425 6.89867C11.2883 7.08698 11.2871 7.08789 11.1266 7.31196C10.9063 7.61921 10.7373 8.02639 10.6742 8.40137C10.6304 8.66184 10.631 9.14802 10.6756 9.43415C10.8021 10.247 11.1898 11.0883 11.8607 12.0062C12.21 12.484 12.7124 13.0749 13.1197 13.4867C13.2174 13.5855 13.2913 13.6722 13.284 13.6792C13.2766 13.6863 13.0388 13.4697 12.7554 13.1979Z" fill="#D852D2"/>
<defs>
<filter id="filter0_d_73_25" x="9.04272" y="0.619263" width="42.1976" height="28.7886" filterUnits="userSpaceOnUse" color-interpolation-filters="sRGB">
<feFlood flood-opacity="0" result="BackgroundImageFix"/>
<feColorMatrix in="SourceAlpha" type="matrix" values="0 0 0 0 0 0 0 0 0 0 0 0 0 0 0 0 0 0 127 0" result="hardAlpha"/>
<feOffset dy="4"/>
<feGaussianBlur stdDeviation="2"/>
<feComposite in2="hardAlpha" operator="out"/>
<feColorMatrix type="matrix" values="0 0 0 0 0 0 0 0 0 0 0 0 0 0 0 0 0 0 0.25 0"/>
<feBlend mode="normal" in2="BackgroundImageFix" result="effect1_dropShadow_73_25"/>
<feBlend mode="normal" in="SourceGraphic" in2="effect1_dropShadow_73_25" result="shape"/>
</filter>
<filter id="filter1_d_73_25" x="10.9547" y="8.98267" width="25.3788" height="31.3871" filterUnits="userSpaceOnUse" color-interpolation-filters="sRGB">
<feFlood flood-opacity="0" result="BackgroundImageFix"/>
<feColorMatrix in="SourceAlpha" type="matrix" values="0 0 0 0 0 0 0 0 0 0 0 0 0 0 0 0 0 0 127 0" result="hardAlpha"/>
<feOffset dy="4"/>
<feGaussianBlur stdDeviation="2"/>
<feComposite in2="hardAlpha" operator="out"/>
<feColorMatrix type="matrix" values="0 0 0 0 0 0 0 0 0 0 0 0 0 0 0 0 0 0 0.25 0"/>
<feBlend mode="normal" in2="BackgroundImageFix" result="effect1_dropShadow_73_25"/>
<feBlend mode="normal" in="SourceGraphic" in2="effect1_dropShadow_73_25" result="shape"/>
</filter>
<filter id="filter2_d_73_25" x="1.33612" y="14.6919" width="22.6132" height="32.4218" filterUnits="userSpaceOnUse" color-interpolation-filters="sRGB">
<feFlood flood-opacity="0" result="BackgroundImageFix"/>
<feColorMatrix in="SourceAlpha" type="matrix" values="0 0 0 0 0 0 0 0 0 0 0 0 0 0 0 0 0 0 127 0" result="hardAlpha"/>
<feOffset dy="4"/>
<feGaussianBlur stdDeviation="2"/>
<feComposite in2="hardAlpha" operator="out"/>
<feColorMatrix type="matrix" values="0 0 0 0 0 0 0 0 0 0 0 0 0 0 0 0 0 0 0.25 0"/>
<feBlend mode="normal" in2="BackgroundImageFix" result="effect1_dropShadow_73_25"/>
<feBlend mode="normal" in="SourceGraphic" in2="effect1_dropShadow_73_25" result="shape"/>
</filter>
<linearGradient id="paint0_linear_73_25" x1="8.05373" y1="42.4359" x2="29.2969" y2="15.1233" gradientUnits="userSpaceOnUse">
<stop offset="0.260417" stop-color="#DC05FF"/>
<stop offset="1" stop-color="#DC05FF" stop-opacity="0"/>
</linearGradient>
</defs>
</svg>
