<svg width="309" height="243" viewBox="0 0 309 243" fill="none" xmlns="http://www.w3.org/2000/svg">
<g clip-path="url(#clip0_7_152)">
<path d="M75.2505 28.8118L35.1727 33.5339L39.6489 71.5527L79.7267 66.8306L75.2505 28.8118Z" fill="#2F2E41"/>
<path d="M54.7664 50.7276C65.6333 50.7276 74.4426 41.9151 74.4426 31.0443C74.4426 20.1734 65.6333 11.3609 54.7664 11.3609C43.8996 11.3609 35.0903 20.1734 35.0903 31.0443C35.0903 41.9151 43.8996 50.7276 54.7664 50.7276Z" fill="#FFB6B6"/>
<path d="M41.7937 0.515197C29.5322 3.92047 30.6742 8.49284 26.9589 11.374C20.4133 16.45 19.0771 29.0385 23.7506 36.6908C24.9993 38.7355 27.4426 41.4375 26.8002 44.7416C26.3071 47.278 24.2256 48.9852 23.8336 49.2962C20.6248 51.8413 22.5857 49.0322 21.2323 51.0043C19.7385 53.1811 22.7408 55.6536 21.518 59.3807C20.434 62.685 17.4077 62.7734 17.2507 64.7894C16.9802 68.2609 25.4722 74.1763 33.592 72.6758C40.8216 71.3398 45.5085 64.5402 46.6379 58.5236C47.3944 54.4932 47.1307 47.7451 43.6282 44.8614C43.137 44.4569 41.8109 43.4935 40.4573 41.7308C39.3863 40.3358 37.9762 38.4995 38.5056 37.0549C39.0696 35.5158 41.2436 36.0347 42.4074 34.4926C43.9859 32.4012 41.4738 29.478 41.4308 26.1976C41.3582 20.6429 48.353 13.1276 56.7126 13.1836C66.1958 13.2471 70.821 23.01 71.3064 24.0792C72.3126 26.2954 72.5602 28.5249 73.0555 32.9841C73.7663 39.3832 74.2117 43.394 72.6916 47.7445C70.5052 54.0019 66.7568 53.7953 66.23 58.3176C65.4088 65.3685 73.8822 71.3543 74.8491 72.0197C82.0176 76.9522 92.0331 77.5092 93.3847 74.7417C94.6026 72.2477 87.6331 69.4127 87.0014 62.1778C86.4539 55.9081 91.2838 53.4082 89.6824 49.2468C87.9199 44.6661 81.6083 46.5021 78.2595 41.4818C75.1338 36.7959 79.4869 33.4787 77.5255 23.3465C77.1105 21.2031 75.7011 15.0773 70.9794 9.40011C68.8992 6.89899 66.7836 4.35526 63.2556 3.30177C59.306 2.1224 48.2798 -1.28606 41.7937 0.515197Z" fill="#2F2E41"/>
<path d="M35.5366 18.7734C36.5475 22.9941 43.2198 24.3348 46.0244 24.5461C47.2122 24.6356 51.2261 24.9379 54.9259 22.7964C56.2934 22.0049 56.7521 21.3807 58.2181 21.0069C60.2029 20.5007 61.3091 21.1483 64.5999 21.6566C68.2591 22.2219 70.0888 22.5045 70.9002 21.6151C72.2266 20.1612 70.5989 16.1078 68.5416 13.4829C64.7375 8.62941 58.7104 7.69783 55.8994 7.26325C52.6878 6.7668 46.1706 5.75933 40.7789 9.74565C40.058 10.2786 34.5095 14.4851 35.5366 18.7734Z" fill="#2F2E41"/>
<path d="M240.605 98.1544C240.696 97.1566 238.365 96.6081 238.494 95.7361C238.623 94.8673 240.982 95.1095 243.522 93.5998C243.98 93.3275 246.867 91.6118 246.625 90.2624C246.165 87.7045 234.869 88.7122 233.868 84.9826C233.649 84.164 233.902 83.0304 233.304 80.4602C233.067 79.4378 232.861 78.905 232.418 78.7271C231.789 78.4746 231.231 79.1572 229.646 80.1459C227.269 81.6287 226.854 81.1351 225.141 82.4515C223.87 83.4288 223.431 84.2141 222.893 84.0396C222.132 83.7928 222.519 82.0608 221.652 81.6132C220.767 81.1565 219.172 82.3455 218.187 83.3868C216.338 85.3408 216.1 87.341 215.456 89.1587C214.755 91.134 213.246 93.8173 209.605 96.5267L176.419 119.406C183.399 114.834 202.904 102.571 210.492 98.2599C212.682 97.0153 214.98 95.8079 217.438 96.454C219.804 97.076 222.034 99.341 225.835 100.904C226.279 101.086 227.521 101.578 228.099 101.057C228.577 100.625 228.166 99.8941 228.607 99.4848C229.198 98.9358 230.417 99.8061 232.443 100.146C233.871 100.385 234.975 100.239 235.924 100.113C236.21 100.076 240.484 99.4828 240.605 98.1544Z" fill="#F2F2F2"/>
<path d="M185.914 83.259C185.45 82.9264 184.509 83.9129 184.118 83.5979C183.729 83.2841 184.529 82.1954 184.521 80.5127C184.519 80.2092 184.511 78.2969 183.779 78.0265C182.391 77.514 179.626 83.3511 177.507 82.7663C177.043 82.6379 176.559 82.1867 175.126 81.7384C174.556 81.5601 174.235 81.5073 174.02 81.6736C173.715 81.9095 173.888 82.3804 173.916 83.444C173.958 85.0391 173.596 85.1003 173.748 86.3209C173.86 87.227 174.119 87.6692 173.878 87.8829C173.537 88.1855 172.799 87.4955 172.33 87.7922C171.85 88.0949 171.973 89.221 172.2 90.0051C172.625 91.4767 173.538 92.1707 174.244 93.0117C175.011 93.9257 175.892 95.4407 176.171 98.01L177.82 120.906C177.591 116.16 177.203 103.044 177.277 98.0748C177.298 96.6402 177.369 95.1637 178.395 94.1433C179.383 93.1609 181.137 92.7197 183.001 91.3044C183.218 91.1391 183.818 90.6713 183.729 90.2368C183.656 89.8776 183.178 89.8684 183.105 89.534C183.006 89.0855 183.784 88.7381 184.536 87.8414C185.065 87.2091 185.312 86.6251 185.524 86.1229C185.588 85.9715 186.531 83.7018 185.914 83.259Z" fill="#F2F2F2"/>
<path d="M193.634 92L195.153 89.3128L195.417 89.2164C196.636 88.771 197.551 88.1371 198.139 87.3319C198.232 87.2039 198.319 87.0711 198.408 86.936C198.759 86.4001 199.195 85.7339 200.074 85.2256C200.566 84.9431 201.796 84.3563 202.505 85.052C202.697 85.2371 202.788 85.4527 202.828 85.6569C202.867 85.6412 202.906 85.6258 202.948 85.609C203.47 85.4102 203.783 85.3902 204.085 85.3709C204.317 85.3559 204.556 85.3409 205.003 85.2182C205.199 85.1645 205.361 85.1098 205.498 85.0641C205.911 84.9262 206.427 84.7786 206.897 85.1276C207.385 85.5181 207.348 86.1289 207.323 86.5334C207.279 87.255 207.163 87.7143 207.087 88.019C207.058 88.1301 207.027 88.2556 207.025 88.2999C207.015 88.6581 208.503 89.3937 209.062 89.6737C210.32 90.2989 211.408 90.8398 211.296 91.8376C211.217 92.5517 210.519 93.0673 209.166 93.4096C208.744 93.516 208.355 93.5471 208.025 93.5534C208.126 93.7871 208.167 94.0638 208.047 94.3647C207.763 95.0767 206.808 95.3057 205.21 95.0482C204.812 94.9852 204.278 94.8985 203.66 94.5961C203.37 94.4533 203.129 94.2957 202.926 94.1575C202.838 94.2697 202.721 94.375 202.558 94.4526C202.078 94.6818 201.52 94.5518 200.906 94.0414C200.222 93.49 199.735 92.9311 199.306 92.4388C198.93 92.0095 198.605 91.641 198.285 91.4408C197.687 91.0774 196.924 91.2146 195.989 91.4316L193.634 92Z" fill="#F2F2F2"/>
<path d="M205.629 78.1345L202.645 77.3458L202.485 77.1153C201.746 76.049 200.9 75.3239 199.973 74.9594C199.825 74.9014 199.675 74.851 199.522 74.7995C198.915 74.5958 198.16 74.3427 197.445 73.6207C197.047 73.2169 196.168 72.175 196.661 71.3128C196.791 71.0796 196.976 70.9371 197.164 70.8469C197.139 70.8133 197.114 70.7791 197.087 70.7424C196.762 70.2884 196.664 69.9903 196.568 69.7031C196.495 69.4824 196.42 69.2546 196.188 68.8532C196.086 68.6771 195.992 68.5342 195.913 68.4139C195.675 68.049 195.402 67.5869 195.62 67.044C195.874 66.4718 196.474 66.3535 196.871 66.2748C197.58 66.1343 198.054 66.1296 198.368 66.1267C198.482 66.1259 198.611 66.1244 198.655 66.115C199.004 66.0343 199.337 64.4071 199.467 63.7954C199.752 62.4197 199.999 61.2292 200.992 61.0846C201.703 60.9805 202.378 61.5245 203.053 62.7474C203.262 63.1282 203.391 63.4968 203.481 63.8144C203.681 63.6578 203.938 63.5478 204.26 63.5874C205.02 63.6822 205.484 64.5476 205.64 66.1599C205.68 66.5608 205.732 67.0996 205.596 67.7738C205.532 68.0913 205.441 68.3641 205.359 68.5961C205.489 68.6523 205.621 68.7391 205.737 68.8772C206.08 69.2828 206.096 69.8562 205.759 70.5801C205.399 71.3812 204.982 71.9941 204.615 72.535C204.295 73.0076 204.021 73.4153 203.909 73.7753C203.709 74.4462 204.035 75.1495 204.482 75.9998L205.629 78.1345Z" fill="#F2F2F2"/>
<path d="M209.634 69.8769L211.154 67.1897L211.417 67.0933C212.636 66.6479 213.552 66.014 214.139 65.2088C214.233 65.0808 214.32 64.948 214.408 64.8129C214.759 64.277 215.196 63.6108 216.075 63.1026C216.566 62.82 217.797 62.2332 218.505 62.929C218.698 63.114 218.789 63.3296 218.828 63.5339C218.867 63.5181 218.907 63.5027 218.949 63.4859C219.47 63.2871 219.784 63.2671 220.085 63.2478C220.317 63.2328 220.557 63.2178 221.004 63.0951C221.2 63.0414 221.362 62.9867 221.498 62.941C221.911 62.8031 222.428 62.6555 222.897 63.0045C223.386 63.395 223.348 64.0058 223.324 64.4103C223.28 65.1319 223.164 65.5912 223.087 65.8959C223.059 66.007 223.028 66.1325 223.026 66.1768C223.015 66.535 224.504 67.2706 225.063 67.5506C226.321 68.1758 227.409 68.7167 227.297 69.7145C227.217 70.4286 226.52 70.9442 225.166 71.2865C224.745 71.3929 224.356 71.424 224.026 71.4303C224.127 71.664 224.168 71.9407 224.048 72.2416C223.763 72.9536 222.809 73.1826 221.21 72.9251C220.813 72.8621 220.278 72.7754 219.661 72.473C219.37 72.3302 219.13 72.1726 218.926 72.0344C218.839 72.1466 218.721 72.2519 218.558 72.3295C218.079 72.5587 217.521 72.4287 216.906 71.9183C216.223 71.3669 215.736 70.808 215.306 70.3157C214.93 69.8864 214.605 69.5179 214.286 69.3177C213.688 68.9543 212.925 69.0916 211.989 69.3085L209.634 69.8769Z" fill="#F2F2F2"/>
<path d="M177.28 119.967L176.995 119.264L176.338 118.894C176.369 118.831 176.43 118.677 176.527 118.438C177.059 117.13 178.676 113.148 181.838 107.321C184.045 103.254 186.537 99.2335 189.245 95.3699C191.958 91.5002 194.236 88.7327 196.066 86.5081C197.447 84.8304 198.79 83.2537 200.099 81.7183C203.597 77.6157 206.9 73.7399 209.949 69.0094C210.631 67.9537 212.048 65.7556 212.44 62.6095C212.668 60.7847 212.519 58.9106 211.996 57.0402L213.458 56.6316C214.034 58.6977 214.197 60.7727 213.945 62.7988C213.509 66.287 211.965 68.6822 211.224 69.833C208.12 74.647 204.785 78.5597 201.254 82.7018C199.949 84.232 198.611 85.8015 197.237 87.4725C195.423 89.6763 193.166 92.4199 190.488 96.2399C187.811 100.057 185.35 104.028 183.17 108.044C180.049 113.798 178.456 117.721 177.932 119.01C177.652 119.697 177.594 119.842 177.28 119.967Z" fill="#F2F2F2"/>
<path d="M208.331 57.3621C208.28 57.3257 208.23 57.2876 208.181 57.2466C207.176 56.433 206.66 55.1052 206.648 53.3004C206.643 52.4524 206.893 51.6696 207.391 50.1085C207.468 49.8676 207.869 48.6552 208.662 47.1605C209.179 46.1836 209.463 45.8241 209.876 45.6236C210.335 45.3999 210.834 45.3738 211.313 45.4592C211.383 45.3303 211.483 45.2182 211.624 45.1315C212.204 44.7705 212.712 45.2407 212.989 45.491C213.128 45.6205 213.3 45.7834 213.513 45.9211C213.847 46.1391 214.09 46.1685 214.457 46.2147C214.808 46.2586 215.244 46.3132 215.777 46.554C216.829 47.0249 217.408 47.8386 217.599 48.1066C218.607 49.5113 218.515 51.0188 218.407 52.7643C218.385 53.1138 218.272 54.3632 217.748 55.809C217.37 56.852 217.058 57.2109 216.777 57.4427C216.201 57.9202 215.601 57.998 214.158 58.0836C212.65 58.175 211.893 58.22 211.314 58.1612C209.968 58.0224 209.123 57.9353 208.331 57.3621Z" fill="#F2F2F2"/>
<path d="M77.798 239.381C68.041 241.748 57.848 243 47.3646 243C36.0094 243 24.9917 241.533 14.5035 238.767C13.3601 234.533 12.0619 229.845 10.5904 224.66C-2.61119 178.102 24.1341 145.093 24.1341 145.093L30.7325 139.885L90.128 147.873C97.0404 181.586 92.5415 206.601 77.798 239.381Z" fill="#2F2E41"/>
<path d="M68.123 56.147L40.337 53.3674L20.1921 70.74L26.444 133.281L23.6654 145.095L89.6571 147.874L86.1838 131.197L91.0464 70.0451L68.123 56.147Z" fill="#DDDEDF"/>
<path d="M77.1534 88.8075H32.6958V158.298H77.1534V88.8075Z" fill="white"/>
<path d="M70.8097 97.9496H58.3875C58.0515 97.9496 57.7782 97.6762 57.7782 97.3401C57.7782 97.004 58.0515 96.7305 58.3875 96.7305H70.8097C71.1456 96.7305 71.419 97.004 71.419 97.3401C71.419 97.6762 71.1456 97.9496 70.8097 97.9496Z" fill="#DC05FF"/>
<path d="M70.8097 102.638H58.3875C58.0515 102.638 57.7782 102.364 57.7782 102.028C57.7782 101.692 58.0515 101.419 58.3875 101.419H70.8097C71.1456 101.419 71.419 101.692 71.419 102.028C71.419 102.364 71.1456 102.638 70.8097 102.638Z" fill="#DC05FF"/>
<path d="M70.8097 107.326H58.3875C58.0515 107.326 57.7782 107.052 57.7782 106.716C57.7782 106.38 58.0515 106.107 58.3875 106.107H70.8097C71.1456 106.107 71.419 106.38 71.419 106.716C71.419 107.052 71.1456 107.326 70.8097 107.326Z" fill="#DC05FF"/>
<path d="M70.2522 123.734H40.0456C39.2287 123.734 38.564 123.069 38.564 122.252C38.564 121.435 39.2287 120.77 40.0456 120.77H70.2522C71.0692 120.77 71.7338 121.435 71.7338 122.252C71.7338 123.069 71.0692 123.734 70.2522 123.734Z" fill="#E6E6E6"/>
<path d="M53.259 150.724C59.2692 152.609 65.1128 151.034 66.3109 147.207C67.5091 143.381 63.6083 138.752 57.5958 136.868C55.2043 136.083 52.6596 135.881 50.1744 136.281L24.6084 128.619L8.38306 140.231L46.8278 146.969C48.6409 148.716 50.8462 150.004 53.259 150.724Z" fill="#FFB6B6"/>
<path d="M22.8105 69.3502C22.8105 69.3502 13.4958 74.6749 10.8344 85.9898L0.188972 131.25C0.188972 131.25 -1.80705 137.905 7.17504 141.233C16.1571 144.561 27.1352 130.251 27.1352 130.251L22.1216 125.236L31.7926 82.9947L22.8105 69.3502Z" fill="#DDDEDF"/>
<path d="M46.3295 144.035C40.0814 144.829 34.6068 142.249 34.1018 138.271C33.5968 134.293 38.2522 130.425 44.5027 129.631C46.9951 129.279 49.5355 129.53 51.9112 130.362L78.4271 127.329L92.3519 141.62L53.3219 141.472C51.2291 142.873 48.8314 143.751 46.3295 144.035Z" fill="#FFB6B6"/>
<path d="M145.209 131.477C117.517 131.477 94.9888 108.94 94.9888 81.2385C94.9888 53.5368 117.517 31 145.209 31C172.9 31 195.429 53.537 195.429 81.2385C195.429 108.94 172.9 131.477 145.209 131.477ZM145.209 31.8443C117.983 31.8443 109.759 66.8847 95.8328 81.2385C76.8707 100.782 117.983 130.633 145.209 130.633C172.435 130.633 194.585 108.474 194.585 81.2385C194.585 54.0026 172.435 31.8443 145.209 31.8443Z" fill="#E6E6E6"/>
<path d="M148.085 92.3834C148.085 93.1612 147.455 93.7917 146.677 93.7917C145.9 93.7917 145.27 93.1612 145.27 92.3834V81.6997L142.043 84.9304C141.492 85.4811 140.6 85.4811 140.049 84.9304C139.499 84.3797 139.499 83.4869 140.049 82.9362L145.681 77.3028C146.23 76.7522 147.121 76.751 147.672 77.3003L147.674 77.3028L153.306 82.9362C153.856 83.4869 153.856 84.3797 153.306 84.9304C152.755 85.4811 151.863 85.4811 151.312 84.9304L148.085 81.6997V92.3834Z" fill="white"/>
<path d="M163.571 99.4251V72.6666L150.901 59.9915H135.415C132.305 59.9915 129.784 62.5137 129.784 65.6249V99.4251C129.784 102.536 132.305 105.058 135.415 105.058H157.94C161.05 105.058 163.571 102.536 163.571 99.4251ZM150.901 68.4416C150.901 70.775 152.792 72.6666 155.124 72.6666H160.756V99.4251C160.756 100.981 159.495 102.242 157.94 102.242H135.415C133.86 102.242 132.599 100.981 132.599 99.4251V65.6249C132.599 64.0693 133.86 62.8082 135.415 62.8082H150.901V68.4416Z" fill="white"/>
<path d="M90.6427 69.3057C90.6427 69.3057 98.8731 76.1898 99.4986 87.7969L102.001 134.225C102.001 134.225 102.792 141.129 93.3643 142.82C83.9364 144.512 75.6523 128.49 75.6523 128.49L81.4714 124.437L79.3965 81.1523L90.6427 69.3057Z" fill="#DDDEDF"/>
<path d="M53.5353 93.6719H37.5583V113.129H53.5353V93.6719Z" fill="#DC05FF"/>
<path d="M41.8235 108.195L40.726 113.004L40.6982 113.129H37.5723C37.9474 111.545 38.4128 109.585 38.6281 108.647C38.899 107.507 39.6076 106.771 40.0591 106.403C40.2883 106.201 40.455 106.111 40.455 106.111L41.8235 108.195Z" fill="#E6E6E6"/>
<path d="M52.3753 113.129H49.3327L49.0826 107.91L50.7498 106.152L50.7984 106.104C50.7984 106.104 52.0557 107.153 52.146 108.925C52.1947 109.808 52.2919 111.58 52.3753 113.129Z" fill="#E6E6E6"/>
<path d="M48.4302 99.9268L42.9958 100.567L43.6028 105.722L49.0372 105.082L48.4302 99.9268Z" fill="#2F2E41"/>
<path d="M45.6526 102.898C47.1261 102.898 48.3206 101.704 48.3206 100.229C48.3206 98.7554 47.1261 97.5605 45.6526 97.5605C44.1791 97.5605 42.9846 98.7554 42.9846 100.229C42.9846 101.704 44.1791 102.898 45.6526 102.898Z" fill="#FFB6B6"/>
<path d="M43.8936 96.0899C42.231 96.5516 42.3858 97.1716 41.8821 97.5623C40.9945 98.2506 40.8133 99.9575 41.447 100.995C41.6163 101.272 41.9477 101.639 41.8606 102.087C41.7937 102.431 41.5114 102.662 41.4583 102.704C41.0232 103.049 41.2891 102.669 41.1056 102.936C40.903 103.231 41.3101 103.566 41.1443 104.072C40.9973 104.52 40.587 104.532 40.5657 104.805C40.529 105.276 41.6805 106.078 42.7815 105.875C43.7618 105.693 44.3973 104.771 44.5505 103.956C44.653 103.409 44.6173 102.494 44.1423 102.103C44.0757 102.048 43.8959 101.918 43.7124 101.679C43.5672 101.489 43.376 101.24 43.4477 101.044C43.5242 100.836 43.819 100.906 43.9768 100.697C44.1908 100.413 43.8502 100.017 43.8444 99.5723C43.8345 98.8191 44.783 97.8001 45.9165 97.8077C47.2024 97.8163 47.8296 99.1401 47.8954 99.2851C48.0318 99.5856 48.0654 99.8879 48.1325 100.493C48.2289 101.36 48.2893 101.904 48.0832 102.494C47.7867 103.342 47.2785 103.314 47.207 103.928C47.0957 104.884 48.2446 105.695 48.3757 105.786C49.3478 106.454 50.7058 106.53 50.8891 106.155C51.0542 105.816 50.1092 105.432 50.0236 104.451C49.9493 103.601 50.6042 103.262 50.3871 102.698C50.1481 102.077 49.2923 102.325 48.8382 101.645C48.4144 101.009 49.0046 100.56 48.7387 99.1857C48.6824 98.8951 48.4913 98.0644 47.851 97.2946C47.569 96.9555 47.2821 96.6106 46.8037 96.4677C46.2682 96.3078 44.7731 95.8456 43.8936 96.0899Z" fill="#2F2E41"/>
<path d="M43.0452 98.5656C43.1823 99.1379 44.087 99.3197 44.4673 99.3484C44.6284 99.3605 45.1726 99.4015 45.6743 99.1111C45.8597 99.0038 45.9219 98.9191 46.1207 98.8685C46.3899 98.7998 46.5399 98.8876 46.9861 98.9566C47.4822 99.0332 47.7303 99.0715 47.8404 98.9509C48.0202 98.7538 47.7995 98.2042 47.5205 97.8482C47.0047 97.1901 46.1875 97.0638 45.8063 97.0049C45.3708 96.9376 44.4871 96.801 43.7561 97.3415C43.6583 97.4138 42.9059 97.9841 43.0452 98.5656Z" fill="#2F2E41"/>
<path d="M50.8609 106.222L50.3121 113.129H40.7329L40.7259 113.004L40.059 106.403L40.0521 106.326L42.0805 104.582L42.7056 104.04L43.1294 103.678L44.22 103.79L47.3598 104.102H47.3668L48.4226 104.742L49.9995 105.701L50.7497 106.152L50.8609 106.222Z" fill="#E6E6E6"/>
</g>
<defs>
<clipPath id="clip0_7_152">
<rect width="309" height="243" fill="white"/>
</clipPath>
</defs>
</svg>
