<svg width="162" height="162" viewBox="0 0 162 162" fill="none" xmlns="http://www.w3.org/2000/svg">
<g clip-path="url(#clip0_126_71)">
<circle cx="81" cy="81" r="80.5" fill="white" stroke="#DC05FF"/>
<path d="M115.468 115.425H74.9676V60.6129L109.986 79.7971L115.468 115.425Z" fill="#2F2E41"/>
<path d="M82.4495 105.751C96.9714 105.751 108.744 93.9787 108.744 79.4568C108.744 64.9349 96.9714 53.1626 82.4495 53.1626C67.9276 53.1626 56.1552 64.9349 56.1552 79.4568C56.1552 93.9787 67.9276 105.751 82.4495 105.751Z" fill="#FFB6B6"/>
<path d="M67.3549 109.639L66.1669 97.6313L89.8887 93.1957L103.896 127.301L79.5353 155.316L62.1782 121.211L67.3549 109.639Z" fill="#FFB6B6"/>
<path d="M139.174 137.362C138.878 137.669 138.577 137.974 138.276 138.275C137.319 139.232 136.345 140.16 135.349 141.062C120.428 154.594 101.283 162 81 162C62.3 162 44.5683 155.706 30.2227 144.119C30.2136 144.113 30.2075 144.107 30.1984 144.098C29.7629 143.748 29.3336 143.391 28.9042 143.029C28.9803 142.81 29.0626 142.593 29.1448 142.38C33.7581 130.361 42.8691 124.481 48.399 121.908C51.1396 120.632 53.0002 120.166 53.0002 120.166L59.4924 108.473L64.0631 116.999L67.431 123.284L81.2497 149.067L93.1713 119.384L96.865 110.181L97.8121 107.824L102.316 111.329L106.579 114.645L115.163 116.539L122.127 118.077L131.585 120.166C135.41 123.281 137.737 129.207 139.037 136.57C139.086 136.832 139.131 137.097 139.174 137.362Z" fill="#DC05FF"/>
<path d="M68.6184 49.5754C71.8213 44.1953 77.7038 40.5039 83.9414 39.9598C90.179 39.4158 96.6117 42.033 100.698 46.7773C103.133 49.6045 104.729 53.0669 107.102 55.9458C112.21 62.1413 120.919 65.7637 123.15 73.4768C124.123 76.8425 123.638 80.4358 123.146 83.9048C122.723 86.878 122.301 89.8513 121.879 92.8246C121.55 95.1385 121.235 97.5778 122.103 99.7479C123.121 102.294 125.557 103.961 127.132 106.206C129.812 110.025 129.616 115.616 126.675 119.238C125.4 120.809 123.709 121.994 122.372 123.512C121.035 125.031 120.043 127.107 120.603 129.052C121.676 132.776 127.517 133.669 128.158 137.492C128.485 139.446 127.135 141.398 125.367 142.292C123.598 143.186 121.516 143.212 119.549 142.972C112.072 142.064 105.149 137.392 101.509 130.798C97.8686 124.205 97.6036 115.857 100.818 109.046C103.458 103.452 108.366 98.508 108.312 92.3222C108.283 88.9523 106.737 85.8047 105.226 82.7926C102.132 76.6275 99.0385 70.4624 95.9449 64.2974C94.2878 60.995 92.3647 57.4362 88.953 56.0175C86.3163 54.9211 83.3247 55.3463 80.5045 55.7948C77.6844 56.2433 74.697 56.6798 72.0525 55.6024C69.408 54.525 67.4098 51.3241 68.6698 48.7615" fill="#2F2E41"/>
<path d="M73.2263 49.8564C68.1462 48.1842 62.4475 50.8686 59.0082 54.9644C55.569 59.0601 53.9007 64.3147 52.3114 69.4213C51.4011 72.3464 50.4907 75.2715 49.5804 78.1966C48.724 80.9482 47.8677 83.6998 47.0113 86.4515C46.004 89.688 44.9885 93.1265 45.8152 96.4138C46.4128 98.7904 47.9506 100.948 47.9837 103.399C48.0183 105.958 46.4153 108.205 45.0106 110.345C43.6058 112.485 42.2872 115.028 42.9565 117.499C43.9745 121.257 49.1996 123.323 48.9131 127.206C48.8176 128.502 48.0682 129.7 48.0818 131C48.0991 132.653 49.3934 134.081 50.9099 134.74C52.4263 135.399 54.1322 135.435 55.7852 135.406C60.8558 135.316 65.9171 134.714 70.867 133.611C72.7714 133.187 74.7081 132.666 76.2933 131.529C77.8785 130.391 79.0611 128.507 78.8548 126.567C78.5333 123.543 75.2826 121.828 73.6422 119.268C72.0309 116.754 72.0683 113.568 71.3735 110.663C70.4186 106.672 68.0603 103.187 66.2899 99.4839C59.6343 85.5628 61.9641 67.8186 71.988 56.0876C72.8743 55.0504 73.8426 54.007 74.2124 52.6938C74.5821 51.3805 74.1055 49.7073 72.8208 49.2479" fill="#2F2E41"/>
</g>
<defs>
<clipPath id="clip0_126_71">
<rect width="162" height="162" fill="white"/>
</clipPath>
</defs>
</svg>
